<mxfile host="drawio-plugin" modified="2021-10-31T18:43:52.399Z" agent="5.0 (Macintosh; Intel Mac OS X 11_5_2) AppleWebKit/537.36 (KHTML, like Gecko) Chrome/89.0.4389.114 Safari/537.36" etag="BbGlxCDnkawgO2TtIEz-" version="14.7.4" type="embed" pages="4"><diagram id="lSn99Gz4MjtCnjOwYopR" name="UC Analysis"><mxGraphModel dx="808" dy="538" grid="1" gridSize="10" guides="1" tooltips="1" connect="1" arrows="1" fold="1" page="1" pageScale="1" pageWidth="1169" pageHeight="1654" math="0" shadow="0"><root><mxCell id="0"/><mxCell id="1" parent="0"/><mxCell id="s3yD7t0BYjJA80eKmX0r-1" value="FFoods" style="ellipse;whiteSpace=wrap;html=1;fontSize=18;fontFamily=PT Mono;fontColor=#CC0000;" parent="1" vertex="1"><mxGeometry x="780" y="220" width="190" height="100" as="geometry"/></mxCell><mxCell id="s3yD7t0BYjJA80eKmX0r-16" style="rounded=0;orthogonalLoop=1;jettySize=auto;html=1;entryX=1;entryY=0.3333333333333333;entryDx=0;entryDy=0;entryPerimeter=0;fontFamily=PT Mono;fontSize=12;fontColor=#000000;startArrow=none;startFill=0;endArrow=classic;endFill=1;verticalAlign=middle;exitX=0;exitY=0;exitDx=0;exitDy=0;edgeStyle=entityRelationEdgeStyle;" parent="1" source="s3yD7t0BYjJA80eKmX0r-3" target="s3yD7t0BYjJA80eKmX0r-4" edge="1"><mxGeometry relative="1" as="geometry"/></mxCell><mxCell id="s3yD7t0BYjJA80eKmX0r-17" value="&amp;lt;&amp;lt;convert 2 EC&amp;gt;&amp;gt;" style="edgeLabel;html=1;align=center;verticalAlign=middle;resizable=0;points=[];fontSize=12;fontFamily=PT Mono;fontColor=#000000;fontStyle=1" parent="s3yD7t0BYjJA80eKmX0r-16" vertex="1" connectable="0"><mxGeometry x="-0.0095" y="-1" relative="1" as="geometry"><mxPoint x="-34" as="offset"/></mxGeometry></mxCell><mxCell id="s3yD7t0BYjJA80eKmX0r-18" value="&amp;lt;&amp;lt;develop&lt;br&gt;relationships&amp;gt;&amp;gt;" style="edgeStyle=entityRelationEdgeStyle;rounded=0;orthogonalLoop=1;jettySize=auto;html=1;entryX=1;entryY=0.3333333333333333;entryDx=0;entryDy=0;entryPerimeter=0;fontFamily=PT Mono;fontSize=12;fontColor=#000000;startArrow=none;startFill=0;endArrow=classic;endFill=1;verticalAlign=middle;fontStyle=1;exitX=0;exitY=1;exitDx=0;exitDy=0;" parent="1" source="s3yD7t0BYjJA80eKmX0r-3" target="s3yD7t0BYjJA80eKmX0r-5" edge="1"><mxGeometry relative="1" as="geometry"/></mxCell><mxCell id="s3yD7t0BYjJA80eKmX0r-19" style="edgeStyle=entityRelationEdgeStyle;rounded=0;orthogonalLoop=1;jettySize=auto;html=1;entryX=1;entryY=1;entryDx=0;entryDy=0;entryPerimeter=0;fontFamily=PT Mono;fontSize=12;fontColor=#000000;startArrow=none;startFill=0;endArrow=classic;endFill=1;verticalAlign=middle;exitX=0.5;exitY=1;exitDx=0;exitDy=0;" parent="1" source="s3yD7t0BYjJA80eKmX0r-3" target="s3yD7t0BYjJA80eKmX0r-5" edge="1"><mxGeometry relative="1" as="geometry"/></mxCell><mxCell id="s3yD7t0BYjJA80eKmX0r-20" value="&amp;lt;&amp;lt;nurture&lt;br&gt;relationships&amp;gt;&amp;gt;" style="edgeLabel;html=1;align=center;verticalAlign=middle;resizable=0;points=[];fontSize=12;fontFamily=PT Mono;fontColor=#000000;fontStyle=1" parent="s3yD7t0BYjJA80eKmX0r-19" vertex="1" connectable="0"><mxGeometry x="-0.0807" y="1" relative="1" as="geometry"><mxPoint as="offset"/></mxGeometry></mxCell><mxCell id="s3yD7t0BYjJA80eKmX0r-3" value="FFamily" style="ellipse;whiteSpace=wrap;html=1;fontSize=18;fontFamily=PT Mono;fontColor=#CC0000;" parent="1" vertex="1"><mxGeometry x="780" y="400" width="190" height="100" as="geometry"/></mxCell><mxCell id="s3yD7t0BYjJA80eKmX0r-6" value="&amp;lt;&amp;lt;include&amp;gt;&amp;gt;" style="edgeStyle=orthogonalEdgeStyle;rounded=0;orthogonalLoop=1;jettySize=auto;html=1;fontFamily=PT Mono;fontSize=12;fontColor=#000000;fontStyle=1;spacingTop=8;" parent="1" source="s3yD7t0BYjJA80eKmX0r-4" target="s3yD7t0BYjJA80eKmX0r-5" edge="1"><mxGeometry relative="1" as="geometry"/></mxCell><mxCell id="s3yD7t0BYjJA80eKmX0r-9" style="edgeStyle=entityRelationEdgeStyle;rounded=0;orthogonalLoop=1;jettySize=auto;html=1;entryX=0;entryY=0.5;entryDx=0;entryDy=0;fontFamily=PT Mono;fontSize=12;fontColor=#000000;exitX=0.75;exitY=0.1;exitDx=0;exitDy=0;exitPerimeter=0;" parent="1" source="s3yD7t0BYjJA80eKmX0r-4" target="s3yD7t0BYjJA80eKmX0r-1" edge="1"><mxGeometry relative="1" as="geometry"/></mxCell><mxCell id="s3yD7t0BYjJA80eKmX0r-10" value="&amp;lt;&amp;lt;uses&amp;gt;&amp;gt;" style="edgeLabel;html=1;align=center;verticalAlign=middle;resizable=0;points=[];fontSize=12;fontFamily=PT Mono;fontColor=#000000;fontStyle=1" parent="s3yD7t0BYjJA80eKmX0r-9" vertex="1" connectable="0"><mxGeometry x="0.0353" y="2" relative="1" as="geometry"><mxPoint as="offset"/></mxGeometry></mxCell><mxCell id="s3yD7t0BYjJA80eKmX0r-4" value="Transactional&lt;br&gt;Customer&lt;br&gt;" style="shape=umlActor;verticalLabelPosition=bottom;verticalAlign=top;html=1;outlineConnect=0;fontFamily=PT Mono;fontSize=18;fontColor=#CC0000;" parent="1" vertex="1"><mxGeometry x="410" y="240" width="30" height="60" as="geometry"/></mxCell><mxCell id="s3yD7t0BYjJA80eKmX0r-7" style="edgeStyle=entityRelationEdgeStyle;rounded=0;orthogonalLoop=1;jettySize=auto;html=1;fontFamily=PT Mono;fontSize=12;fontColor=#000000;exitX=0.75;exitY=0.1;exitDx=0;exitDy=0;exitPerimeter=0;" parent="1" source="s3yD7t0BYjJA80eKmX0r-5" target="s3yD7t0BYjJA80eKmX0r-3" edge="1"><mxGeometry relative="1" as="geometry"/></mxCell><mxCell id="s3yD7t0BYjJA80eKmX0r-8" value="&amp;lt;&amp;lt;uses&amp;gt;&amp;gt;" style="edgeLabel;html=1;align=center;verticalAlign=middle;resizable=0;points=[];fontSize=12;fontFamily=PT Mono;fontColor=#000000;fontStyle=1" parent="s3yD7t0BYjJA80eKmX0r-7" vertex="1" connectable="0"><mxGeometry x="0.0471" y="2" relative="1" as="geometry"><mxPoint as="offset"/></mxGeometry></mxCell><mxCell id="s3yD7t0BYjJA80eKmX0r-5" value="Engaged&lt;br&gt;Customer" style="shape=umlActor;verticalLabelPosition=bottom;verticalAlign=top;html=1;outlineConnect=0;fontFamily=PT Mono;fontSize=18;fontColor=#CC0000;" parent="1" vertex="1"><mxGeometry x="410" y="420" width="30" height="60" as="geometry"/></mxCell><mxCell id="s3yD7t0BYjJA80eKmX0r-12" value="&amp;lt;&amp;lt;include&amp;gt;&amp;gt;" style="edgeStyle=orthogonalEdgeStyle;rounded=0;orthogonalLoop=1;jettySize=auto;html=1;fontFamily=PT Mono;fontSize=12;fontColor=#000000;fontStyle=1;verticalAlign=middle;spacingTop=24;" parent="1" source="s3yD7t0BYjJA80eKmX0r-11" target="s3yD7t0BYjJA80eKmX0r-5" edge="1"><mxGeometry relative="1" as="geometry"/></mxCell><mxCell id="s3yD7t0BYjJA80eKmX0r-14" value="" style="edgeStyle=orthogonalEdgeStyle;rounded=0;orthogonalLoop=1;jettySize=auto;html=1;fontFamily=PT Mono;fontSize=12;fontColor=#000000;verticalAlign=middle;startArrow=classic;startFill=1;endArrow=none;endFill=0;" parent="1" source="s3yD7t0BYjJA80eKmX0r-11" target="s3yD7t0BYjJA80eKmX0r-13" edge="1"><mxGeometry relative="1" as="geometry"/></mxCell><mxCell id="s3yD7t0BYjJA80eKmX0r-15" value="&amp;lt;&amp;lt;include&amp;gt;&amp;gt;" style="edgeLabel;html=1;align=center;verticalAlign=middle;resizable=0;points=[];fontSize=12;fontFamily=PT Mono;fontColor=#000000;fontStyle=1" parent="s3yD7t0BYjJA80eKmX0r-14" vertex="1" connectable="0"><mxGeometry x="0.2133" y="-1" relative="1" as="geometry"><mxPoint as="offset"/></mxGeometry></mxCell><mxCell id="s3yD7t0BYjJA80eKmX0r-11" value="Community" style="shape=umlActor;verticalLabelPosition=bottom;verticalAlign=top;html=1;outlineConnect=0;fontFamily=PT Mono;fontSize=18;fontColor=#CC0000;" parent="1" vertex="1"><mxGeometry x="260" y="420" width="30" height="60" as="geometry"/></mxCell><mxCell id="s3yD7t0BYjJA80eKmX0r-13" value="Support&lt;br&gt;Community" style="shape=umlActor;verticalLabelPosition=bottom;verticalAlign=top;html=1;outlineConnect=0;fontFamily=PT Mono;fontSize=18;fontColor=#CC0000;" parent="1" vertex="1"><mxGeometry x="90" y="420" width="30" height="60" as="geometry"/></mxCell></root></mxGraphModel></diagram><diagram id="dAIiNXYUEFbyqE54uoQh" name="C4.System Context"><mxGraphModel dx="808" dy="538" grid="1" gridSize="10" guides="1" tooltips="1" connect="1" arrows="1" fold="1" page="1" pageScale="1" pageWidth="1654" pageHeight="1169" math="0" shadow="0"><root><mxCell id="sLNxDodoaTfTCR287p80-0"/><mxCell id="sLNxDodoaTfTCR287p80-1" parent="sLNxDodoaTfTCR287p80-0"/><object placeholders="1" c4Name="Engaged&#10;Customer" c4Type="Person" c4Description="receive personal,&#10;community and&#10;support community&#10;messages" label="&lt;b style=&quot;font-size: 10px;&quot;&gt;%c4Name%&lt;/b&gt;&lt;div style=&quot;font-size: 10px;&quot;&gt;[%c4Type%]&lt;/div&gt;&lt;br style=&quot;font-size: 10px;&quot;&gt;&lt;div style=&quot;font-size: 10px;&quot;&gt;%c4Description%&lt;/div&gt;" id="sLNxDodoaTfTCR287p80-2"><mxCell style="html=1;dashed=0;whitespace=wrap;fillColor=#08427b;strokeColor=none;fontColor=#ffffff;shape=mxgraph.c4.person;align=center;metaEdit=1;points=[[0.5,0,0],[1,0.5,0],[1,0.75,0],[0.75,1,0],[0.5,1,0],[0.25,1,0],[0,0.75,0],[0,0.5,0]];metaData={&quot;c4Type&quot;:{&quot;editable&quot;:false}};fontFamily=PT Mono;fontSize=10;" parent="sLNxDodoaTfTCR287p80-1" vertex="1"><mxGeometry x="230" y="534" width="110.00000000000001" height="140" as="geometry"/></mxCell></object><object placeholders="1" c4Name="Farmacy Family" c4Type="Software System" c4Description="adds tighter engagement with customers" label="&lt;b style=&quot;font-size: 11px;&quot;&gt;%c4Name%&lt;/b&gt;&lt;div style=&quot;font-size: 11px;&quot;&gt;[%c4Type%]&lt;/div&gt;&lt;br style=&quot;font-size: 11px;&quot;&gt;&lt;div style=&quot;font-size: 11px;&quot;&gt;%c4Description%&lt;/div&gt;" id="sLNxDodoaTfTCR287p80-3"><mxCell style="rounded=1;whiteSpace=wrap;html=1;labelBackgroundColor=none;fillColor=#1168BD;fontColor=#ffffff;align=center;arcSize=10;strokeColor=#1168BD;metaEdit=1;metaData={&quot;c4Type&quot;:{&quot;editable&quot;:false}};points=[[0.25,0,0],[0.5,0,0],[0.75,0,0],[1,0.25,0],[1,0.5,0],[1,0.75,0],[0.75,1,0],[0.5,1,0],[0.25,1,0],[0,0.75,0],[0,0.5,0],[0,0.25,0]];fontFamily=PT Mono;fontSize=11;" parent="sLNxDodoaTfTCR287p80-1" vertex="1"><mxGeometry x="520" y="340" width="160" height="110.00000000000001" as="geometry"/></mxCell></object><object placeholders="1" c4Name="Farmacy Foods" c4Type="Software System" c4Description="updates&#10;refillment &amp; delivery info" label="&lt;b style=&quot;font-size: 11px;&quot;&gt;%c4Name%&lt;/b&gt;&lt;div style=&quot;font-size: 11px;&quot;&gt;[%c4Type%]&lt;/div&gt;&lt;br style=&quot;font-size: 11px;&quot;&gt;&lt;div style=&quot;font-size: 11px;&quot;&gt;%c4Description%&lt;/div&gt;" id="sLNxDodoaTfTCR287p80-4"><mxCell style="rounded=1;whiteSpace=wrap;html=1;labelBackgroundColor=none;fillColor=#1168BD;fontColor=#ffffff;align=center;arcSize=10;strokeColor=#1168BD;metaEdit=1;metaData={&quot;c4Type&quot;:{&quot;editable&quot;:false}};points=[[0.25,0,0],[0.5,0,0],[0.75,0,0],[1,0.25,0],[1,0.5,0],[1,0.75,0],[0.75,1,0],[0.5,1,0],[0.25,1,0],[0,0.75,0],[0,0.5,0],[0,0.25,0]];fontFamily=PT Mono;fontSize=11;" parent="sLNxDodoaTfTCR287p80-1" vertex="1"><mxGeometry x="850" y="340" width="160" height="110.00000000000001" as="geometry"/></mxCell></object><object placeholders="1" c4Name="SaaS Omnichannel Provider" c4Type="Software System" c4Description="delivers access to various communication channels" label="&lt;b style=&quot;font-size: 11px;&quot;&gt;%c4Name%&lt;/b&gt;&lt;div style=&quot;font-size: 11px;&quot;&gt;[%c4Type%]&lt;/div&gt;&lt;br style=&quot;font-size: 11px;&quot;&gt;&lt;div style=&quot;font-size: 11px;&quot;&gt;%c4Description%&lt;/div&gt;" id="sLNxDodoaTfTCR287p80-5"><mxCell style="rounded=1;whiteSpace=wrap;html=1;labelBackgroundColor=none;fillColor=#999999;fontColor=#ffffff;align=center;arcSize=10;strokeColor=#8A8A8A;metaEdit=1;metaData={&quot;c4Type&quot;:{&quot;editable&quot;:false}};points=[[0.25,0,0],[0.5,0,0],[0.75,0,0],[1,0.25,0],[1,0.5,0],[1,0.75,0],[0.75,1,0],[0.5,1,0],[0.25,1,0],[0,0.75,0],[0,0.5,0],[0,0.25,0]];fontFamily=PT Mono;fontSize=11;" parent="sLNxDodoaTfTCR287p80-1" vertex="1"><mxGeometry x="520" y="585" width="160" height="110.00000000000001" as="geometry"/></mxCell></object><object placeholders="1" c4Type="Relationship" c4Technology="REST/SOAP/etc." c4Description="send\receive&#10;messages&#10;to\from customers" label="&lt;div style=&quot;text-align: left&quot;&gt;&lt;div style=&quot;text-align: center&quot;&gt;&lt;b&gt;%c4Description%&lt;/b&gt;&lt;/div&gt;&lt;div style=&quot;text-align: center&quot;&gt;[%c4Technology%]&lt;/div&gt;&lt;/div&gt;" id="sLNxDodoaTfTCR287p80-6"><mxCell style="edgeStyle=none;rounded=0;html=1;entryX=0.5;entryY=0;jettySize=auto;orthogonalLoop=1;strokeColor=#707070;strokeWidth=2;fontColor=#707070;jumpStyle=none;dashed=1;metaEdit=1;metaData={&quot;c4Type&quot;:{&quot;editable&quot;:false}};fontFamily=PT Mono;fontSize=12;startArrow=none;startFill=0;endArrow=classic;endFill=1;verticalAlign=middle;entryDx=0;entryDy=0;entryPerimeter=0;exitX=0.5;exitY=1;exitDx=0;exitDy=0;exitPerimeter=0;" parent="sLNxDodoaTfTCR287p80-1" source="sLNxDodoaTfTCR287p80-3" target="sLNxDodoaTfTCR287p80-5" edge="1"><mxGeometry width="160" relative="1" as="geometry"><mxPoint x="600" y="480" as="sourcePoint"/><mxPoint x="370" y="510" as="targetPoint"/></mxGeometry></mxCell></object><object placeholders="1" c4Type="Relationship" c4Technology="REST" c4Description="get client's&#10;info" label="&lt;div style=&quot;text-align: left&quot;&gt;&lt;div style=&quot;text-align: center&quot;&gt;&lt;b&gt;%c4Description%&lt;/b&gt;&lt;/div&gt;&lt;div style=&quot;text-align: center&quot;&gt;[%c4Technology%]&lt;/div&gt;&lt;/div&gt;" id="sLNxDodoaTfTCR287p80-7"><mxCell style="edgeStyle=none;rounded=0;html=1;entryX=0;entryY=0.5;jettySize=auto;orthogonalLoop=1;strokeColor=#707070;strokeWidth=2;fontColor=#707070;jumpStyle=none;dashed=1;metaEdit=1;metaData={&quot;c4Type&quot;:{&quot;editable&quot;:false}};fontFamily=PT Mono;fontSize=12;startArrow=none;startFill=0;endArrow=classic;endFill=1;verticalAlign=middle;entryDx=0;entryDy=0;entryPerimeter=0;exitX=1;exitY=0.5;exitDx=0;exitDy=0;exitPerimeter=0;" parent="sLNxDodoaTfTCR287p80-1" edge="1"><mxGeometry width="160" relative="1" as="geometry"><mxPoint x="680" y="388" as="sourcePoint"/><mxPoint x="850" y="388" as="targetPoint"/></mxGeometry></mxCell></object><mxCell id="sLNxDodoaTfTCR287p80-9" value="" style="endArrow=classic;html=1;rounded=0;fontFamily=PT Mono;fontSize=12;fontColor=#707070;verticalAlign=middle;dashed=1;strokeColor=#707070;strokeWidth=2;endFill=1;startFill=0;entryX=0;entryY=0.75;entryDx=0;entryDy=0;entryPerimeter=0;exitX=1;exitY=0.5;exitDx=0;exitDy=0;exitPerimeter=0;" parent="sLNxDodoaTfTCR287p80-1" source="sLNxDodoaTfTCR287p80-2" target="sLNxDodoaTfTCR287p80-3" edge="1"><mxGeometry width="50" height="50" relative="1" as="geometry"><mxPoint x="430" y="430" as="sourcePoint"/><mxPoint x="480" y="380" as="targetPoint"/></mxGeometry></mxCell><mxCell id="sLNxDodoaTfTCR287p80-10" value="register,&lt;br&gt;fill medical,&lt;br&gt;diet needs,&lt;br&gt;&amp;amp;&lt;br&gt;preferences,&lt;br&gt;get reports" style="edgeLabel;html=1;align=center;verticalAlign=middle;resizable=0;points=[];fontSize=12;fontFamily=PT Mono;fontColor=#707070;fontStyle=1" parent="sLNxDodoaTfTCR287p80-9" vertex="1" connectable="0"><mxGeometry x="-0.1463" y="-1" relative="1" as="geometry"><mxPoint x="1" as="offset"/></mxGeometry></mxCell><object placeholders="1" c4Name="Transactional&#10;Customer" c4Type="Person" c4Description="receive personal&#10;messages" label="&lt;b style=&quot;font-size: 10px;&quot;&gt;%c4Name%&lt;/b&gt;&lt;div style=&quot;font-size: 10px;&quot;&gt;[%c4Type%]&lt;/div&gt;&lt;br style=&quot;font-size: 10px;&quot;&gt;&lt;div style=&quot;font-size: 10px;&quot;&gt;%c4Description%&lt;/div&gt;" id="sLNxDodoaTfTCR287p80-11"><mxCell style="html=1;dashed=0;whitespace=wrap;fillColor=#08427b;strokeColor=none;fontColor=#ffffff;shape=mxgraph.c4.person;align=center;metaEdit=1;points=[[0.5,0,0],[1,0.5,0],[1,0.75,0],[0.75,1,0],[0.5,1,0],[0.25,1,0],[0,0.75,0],[0,0.5,0]];metaData={&quot;c4Type&quot;:{&quot;editable&quot;:false}};fontFamily=PT Mono;fontSize=10;" parent="sLNxDodoaTfTCR287p80-1" vertex="1"><mxGeometry x="875" y="536" width="110.00000000000001" height="140" as="geometry"/></mxCell></object><mxCell id="sLNxDodoaTfTCR287p80-12" value="" style="endArrow=classic;html=1;rounded=0;fontFamily=PT Mono;fontSize=12;fontColor=#707070;verticalAlign=middle;dashed=1;strokeColor=#707070;strokeWidth=2;endFill=1;startFill=0;exitX=0.5;exitY=0;exitDx=0;exitDy=0;exitPerimeter=0;entryX=0.5;entryY=1;entryDx=0;entryDy=0;entryPerimeter=0;edgeStyle=orthogonalEdgeStyle;" parent="sLNxDodoaTfTCR287p80-1" source="sLNxDodoaTfTCR287p80-11" target="sLNxDodoaTfTCR287p80-4" edge="1"><mxGeometry width="50" height="50" relative="1" as="geometry"><mxPoint x="240" y="510" as="sourcePoint"/><mxPoint x="780" y="260" as="targetPoint"/></mxGeometry></mxCell><mxCell id="sLNxDodoaTfTCR287p80-13" value="make orders&lt;br&gt;to purchase&lt;br&gt;meal" style="edgeLabel;html=1;align=center;verticalAlign=middle;resizable=0;points=[];fontSize=12;fontFamily=PT Mono;fontColor=#707070;fontStyle=1" parent="sLNxDodoaTfTCR287p80-12" vertex="1" connectable="0"><mxGeometry x="-0.1463" y="-1" relative="1" as="geometry"><mxPoint x="-1" y="-8" as="offset"/></mxGeometry></mxCell><mxCell id="sLNxDodoaTfTCR287p80-15" value="" style="endArrow=none;html=1;rounded=0;fontFamily=PT Mono;fontSize=12;fontColor=#707070;verticalAlign=middle;dashed=1;strokeColor=#707070;strokeWidth=2;endFill=0;startFill=1;entryX=0;entryY=0.5;entryDx=0;entryDy=0;entryPerimeter=0;startArrow=classic;" parent="sLNxDodoaTfTCR287p80-1" target="sLNxDodoaTfTCR287p80-5" edge="1"><mxGeometry width="50" height="50" relative="1" as="geometry"><mxPoint x="340" y="640" as="sourcePoint"/><mxPoint x="520" y="570" as="targetPoint"/></mxGeometry></mxCell><mxCell id="sLNxDodoaTfTCR287p80-16" value="send to" style="edgeLabel;html=1;align=center;verticalAlign=middle;resizable=0;points=[];fontSize=12;fontFamily=PT Mono;fontColor=#707070;fontStyle=1" parent="sLNxDodoaTfTCR287p80-15" vertex="1" connectable="0"><mxGeometry x="-0.1463" y="-1" relative="1" as="geometry"><mxPoint x="13" y="-3" as="offset"/></mxGeometry></mxCell><mxCell id="sLNxDodoaTfTCR287p80-17" value="" style="endArrow=none;html=1;rounded=0;fontFamily=PT Mono;fontSize=12;fontColor=#707070;verticalAlign=middle;edgeStyle=elbowEdgeStyle;dashed=1;strokeColor=#707070;strokeWidth=2;endFill=0;startFill=1;exitX=0;exitY=0.75;exitDx=0;exitDy=0;exitPerimeter=0;startArrow=classic;entryX=1;entryY=0.5;entryDx=0;entryDy=0;entryPerimeter=0;" parent="sLNxDodoaTfTCR287p80-1" source="sLNxDodoaTfTCR287p80-11" target="sLNxDodoaTfTCR287p80-5" edge="1"><mxGeometry width="50" height="50" relative="1" as="geometry"><mxPoint x="875" y="639" as="sourcePoint"/><mxPoint x="710" y="639" as="targetPoint"/><Array as="points"><mxPoint x="710" y="644"/></Array></mxGeometry></mxCell><mxCell id="sLNxDodoaTfTCR287p80-18" value="send to" style="edgeLabel;html=1;align=center;verticalAlign=middle;resizable=0;points=[];fontSize=12;fontFamily=PT Mono;fontColor=#707070;fontStyle=1" parent="sLNxDodoaTfTCR287p80-17" vertex="1" connectable="0"><mxGeometry x="-0.1463" y="-1" relative="1" as="geometry"><mxPoint x="1" y="-3" as="offset"/></mxGeometry></mxCell><object placeholders="1" c4Type="Relationship" c4Technology="REST" c4Description="send updates&#10;to community" label="&lt;div style=&quot;text-align: left&quot;&gt;&lt;div style=&quot;text-align: center&quot;&gt;&lt;b&gt;%c4Description%&lt;/b&gt;&lt;/div&gt;&lt;div style=&quot;text-align: center&quot;&gt;[%c4Technology%]&lt;/div&gt;&lt;/div&gt;" id="sLNxDodoaTfTCR287p80-19"><mxCell style="edgeStyle=none;rounded=0;html=1;entryX=1;entryY=0.75;jettySize=auto;orthogonalLoop=1;strokeColor=#707070;strokeWidth=2;fontColor=#707070;jumpStyle=none;dashed=1;metaEdit=1;metaData={&quot;c4Type&quot;:{&quot;editable&quot;:false}};fontFamily=PT Mono;fontSize=12;startArrow=none;startFill=0;endArrow=classic;endFill=1;verticalAlign=middle;entryDx=0;entryDy=0;entryPerimeter=0;exitX=0;exitY=0.75;exitDx=0;exitDy=0;exitPerimeter=0;" parent="sLNxDodoaTfTCR287p80-1" edge="1"><mxGeometry width="160" relative="1" as="geometry"><mxPoint x="850" y="431.5" as="sourcePoint"/><mxPoint x="680" y="431.5" as="targetPoint"/></mxGeometry></mxCell></object><object placeholders="1" c4Name="Dietitian" c4Type="Person" c4Description="advises customers,&#10;teaches classes,&#10;writes guides" label="&lt;b style=&quot;font-size: 10px;&quot;&gt;%c4Name%&lt;/b&gt;&lt;div style=&quot;font-size: 10px;&quot;&gt;[%c4Type%]&lt;/div&gt;&lt;br style=&quot;font-size: 10px;&quot;&gt;&lt;div style=&quot;font-size: 10px;&quot;&gt;%c4Description%&lt;/div&gt;" id="bWgCoBPQPXmN3WQ5duRe-9"><mxCell style="html=1;dashed=0;whitespace=wrap;fillColor=#08427b;strokeColor=none;fontColor=#ffffff;shape=mxgraph.c4.person;align=center;metaEdit=1;points=[[0.5,0,0],[1,0.5,0],[1,0.75,0],[0.75,1,0],[0.5,1,0],[0.25,1,0],[0,0.75,0],[0,0.5,0]];metaData={&quot;c4Type&quot;:{&quot;editable&quot;:false}};fontFamily=PT Mono;fontSize=10;" parent="sLNxDodoaTfTCR287p80-1" vertex="1"><mxGeometry x="700" y="110" width="110.00000000000001" height="140" as="geometry"/></mxCell></object><mxCell id="bWgCoBPQPXmN3WQ5duRe-10" value="" style="endArrow=classic;html=1;rounded=0;fontFamily=PT Mono;fontSize=12;fontColor=#707070;verticalAlign=middle;entryX=0.75;entryY=0;entryDx=0;entryDy=0;entryPerimeter=0;dashed=1;strokeColor=#707070;strokeWidth=2;endFill=1;startFill=0;elbow=vertical;exitX=0.25;exitY=1;exitDx=0;exitDy=0;exitPerimeter=0;" parent="sLNxDodoaTfTCR287p80-1" source="bWgCoBPQPXmN3WQ5duRe-9" target="sLNxDodoaTfTCR287p80-3" edge="1"><mxGeometry width="50" height="50" relative="1" as="geometry"><mxPoint x="670" y="240" as="sourcePoint"/><mxPoint x="360" y="480" as="targetPoint"/></mxGeometry></mxCell><mxCell id="bWgCoBPQPXmN3WQ5duRe-11" value="send\receive&lt;br&gt;messages&lt;br&gt;to\from customers" style="edgeLabel;html=1;align=center;verticalAlign=middle;resizable=0;points=[];fontSize=11;fontFamily=PT Mono;fontColor=#707070;fontStyle=1" parent="bWgCoBPQPXmN3WQ5duRe-10" vertex="1" connectable="0"><mxGeometry x="-0.1713" y="2" relative="1" as="geometry"><mxPoint as="offset"/></mxGeometry></mxCell><object placeholders="1" c4Name="Medical Clinics" c4Type="Organization" c4Description="Baseline tests&#10;for clients" label="&lt;b style=&quot;font-size: 10px;&quot;&gt;%c4Name%&lt;/b&gt;&lt;div style=&quot;font-size: 10px;&quot;&gt;[%c4Type%]&lt;/div&gt;&lt;br style=&quot;font-size: 10px;&quot;&gt;&lt;div style=&quot;font-size: 10px;&quot;&gt;%c4Description%&lt;/div&gt;" id="bWgCoBPQPXmN3WQ5duRe-12"><mxCell style="html=1;dashed=0;whitespace=wrap;fillColor=#08427b;strokeColor=none;fontColor=#ffffff;shape=mxgraph.c4.person;align=center;metaEdit=1;points=[[0.5,0,0],[1,0.5,0],[1,0.75,0],[0.75,1,0],[0.5,1,0],[0.25,1,0],[0,0.75,0],[0,0.5,0]];metaData={&quot;c4Type&quot;:{&quot;editable&quot;:false}};fontFamily=PT Mono;fontSize=10;" parent="sLNxDodoaTfTCR287p80-1" vertex="1"><mxGeometry x="300" y="150" width="110.00000000000001" height="140" as="geometry"/></mxCell></object><object placeholders="1" c4Name="Regulator" c4Type="Organization" c4Description="observes&#10;Farmacy Family &#10;&amp; Farmacy Food&#10;activities" label="&lt;b style=&quot;font-size: 10px;&quot;&gt;%c4Name%&lt;/b&gt;&lt;div style=&quot;font-size: 10px;&quot;&gt;[%c4Type%]&lt;/div&gt;&lt;br style=&quot;font-size: 10px;&quot;&gt;&lt;div style=&quot;font-size: 10px;&quot;&gt;%c4Description%&lt;/div&gt;" id="bWgCoBPQPXmN3WQ5duRe-15"><mxCell style="html=1;dashed=0;whitespace=wrap;fillColor=#08427b;strokeColor=none;fontColor=#ffffff;shape=mxgraph.c4.person;align=center;metaEdit=1;points=[[0.5,0,0],[1,0.5,0],[1,0.75,0],[0.75,1,0],[0.5,1,0],[0.25,1,0],[0,0.75,0],[0,0.5,0]];metaData={&quot;c4Type&quot;:{&quot;editable&quot;:false}};fontFamily=PT Mono;fontSize=10;" parent="sLNxDodoaTfTCR287p80-1" vertex="1"><mxGeometry x="505" y="70" width="110.00000000000001" height="140" as="geometry"/></mxCell></object><mxCell id="bWgCoBPQPXmN3WQ5duRe-19" style="edgeStyle=none;rounded=0;orthogonalLoop=1;jettySize=auto;html=1;entryX=0;entryY=0.5;entryDx=0;entryDy=0;entryPerimeter=0;fontFamily=PT Mono;fontSize=12;fontColor=#707070;startArrow=none;startFill=0;endArrow=classic;endFill=1;verticalAlign=middle;dashed=1;strokeColor=#707070;strokeWidth=2;" parent="sLNxDodoaTfTCR287p80-1" source="bWgCoBPQPXmN3WQ5duRe-16" target="sLNxDodoaTfTCR287p80-3" edge="1"><mxGeometry relative="1" as="geometry"/></mxCell><mxCell id="bWgCoBPQPXmN3WQ5duRe-21" value="get reports" style="edgeLabel;html=1;align=center;verticalAlign=middle;resizable=0;points=[];fontSize=11;fontFamily=PT Mono;fontColor=#707070;fontStyle=1" parent="bWgCoBPQPXmN3WQ5duRe-19" vertex="1" connectable="0"><mxGeometry x="-0.1015" y="2" relative="1" as="geometry"><mxPoint as="offset"/></mxGeometry></mxCell><object placeholders="1" c4Name="Owner\Investor" c4Type="Person" c4Description="observes&#10;Farmacy Family &#10;&amp; Farmacy Food&#10;activities" label="&lt;b style=&quot;font-size: 10px;&quot;&gt;%c4Name%&lt;/b&gt;&lt;div style=&quot;font-size: 10px;&quot;&gt;[%c4Type%]&lt;/div&gt;&lt;br style=&quot;font-size: 10px;&quot;&gt;&lt;div style=&quot;font-size: 10px;&quot;&gt;%c4Description%&lt;/div&gt;" id="bWgCoBPQPXmN3WQ5duRe-16"><mxCell style="html=1;dashed=0;whitespace=wrap;fillColor=#08427b;strokeColor=none;fontColor=#ffffff;shape=mxgraph.c4.person;align=center;metaEdit=1;points=[[0.5,0,0],[1,0.5,0],[1,0.75,0],[0.75,1,0],[0.5,1,0],[0.25,1,0],[0,0.75,0],[0,0.5,0]];metaData={&quot;c4Type&quot;:{&quot;editable&quot;:false}};fontFamily=PT Mono;fontSize=10;" parent="sLNxDodoaTfTCR287p80-1" vertex="1"><mxGeometry x="190" y="325" width="110.00000000000001" height="140" as="geometry"/></mxCell></object><mxCell id="bWgCoBPQPXmN3WQ5duRe-17" value="get reports" style="endArrow=classic;html=1;rounded=0;fontFamily=PT Mono;fontSize=12;fontColor=#707070;verticalAlign=middle;exitX=0.5;exitY=1;exitDx=0;exitDy=0;exitPerimeter=0;entryX=0.25;entryY=0;entryDx=0;entryDy=0;entryPerimeter=0;dashed=1;strokeColor=#707070;strokeWidth=2;endFill=1;startFill=0;fontStyle=1" parent="sLNxDodoaTfTCR287p80-1" source="bWgCoBPQPXmN3WQ5duRe-15" target="sLNxDodoaTfTCR287p80-3" edge="1"><mxGeometry width="50" height="50" relative="1" as="geometry"><mxPoint x="90" y="220" as="sourcePoint"/><mxPoint x="140" y="170" as="targetPoint"/></mxGeometry></mxCell><mxCell id="bWgCoBPQPXmN3WQ5duRe-18" value="" style="endArrow=classic;html=1;rounded=0;fontFamily=PT Mono;fontSize=12;fontColor=#707070;verticalAlign=middle;exitX=1;exitY=0.75;exitDx=0;exitDy=0;exitPerimeter=0;entryX=0;entryY=0.25;entryDx=0;entryDy=0;entryPerimeter=0;dashed=1;strokeColor=#707070;strokeWidth=2;endFill=1;startFill=0;" parent="sLNxDodoaTfTCR287p80-1" source="bWgCoBPQPXmN3WQ5duRe-12" target="sLNxDodoaTfTCR287p80-3" edge="1"><mxGeometry width="50" height="50" relative="1" as="geometry"><mxPoint x="80" y="280" as="sourcePoint"/><mxPoint x="130" y="230" as="targetPoint"/></mxGeometry></mxCell><mxCell id="bWgCoBPQPXmN3WQ5duRe-20" value="send analysis results,&lt;br&gt;get reports" style="edgeLabel;html=1;align=center;verticalAlign=middle;resizable=0;points=[];fontSize=11;fontFamily=PT Mono;fontColor=#707070;fontStyle=1" parent="bWgCoBPQPXmN3WQ5duRe-18" vertex="1" connectable="0"><mxGeometry x="-0.0366" y="-1" relative="1" as="geometry"><mxPoint as="offset"/></mxGeometry></mxCell><object placeholders="1" c4Name="Operator" c4Type="Person" c4Description="helps clients,&#10;sends updates" label="&lt;b style=&quot;font-size: 10px;&quot;&gt;%c4Name%&lt;/b&gt;&lt;div style=&quot;font-size: 10px;&quot;&gt;[%c4Type%]&lt;/div&gt;&lt;br style=&quot;font-size: 10px;&quot;&gt;&lt;div style=&quot;font-size: 10px;&quot;&gt;%c4Description%&lt;/div&gt;" id="bWgCoBPQPXmN3WQ5duRe-22"><mxCell style="html=1;dashed=0;whitespace=wrap;fillColor=#08427b;strokeColor=none;fontColor=#ffffff;shape=mxgraph.c4.person;align=center;metaEdit=1;points=[[0.5,0,0],[1,0.5,0],[1,0.75,0],[0.75,1,0],[0.5,1,0],[0.25,1,0],[0,0.75,0],[0,0.5,0]];metaData={&quot;c4Type&quot;:{&quot;editable&quot;:false}};fontFamily=PT Mono;fontSize=10;" parent="sLNxDodoaTfTCR287p80-1" vertex="1"><mxGeometry x="875" y="140" width="110.00000000000001" height="140" as="geometry"/></mxCell></object><mxCell id="bWgCoBPQPXmN3WQ5duRe-25" value="" style="endArrow=classic;html=1;rounded=0;fontFamily=PT Mono;fontSize=12;fontColor=#707070;verticalAlign=middle;entryX=1;entryY=0.25;entryDx=0;entryDy=0;entryPerimeter=0;dashed=1;strokeColor=#707070;strokeWidth=2;endFill=1;startFill=0;elbow=vertical;exitX=0.5;exitY=1;exitDx=0;exitDy=0;exitPerimeter=0;" parent="sLNxDodoaTfTCR287p80-1" source="bWgCoBPQPXmN3WQ5duRe-22" target="sLNxDodoaTfTCR287p80-3" edge="1"><mxGeometry width="50" height="50" relative="1" as="geometry"><mxPoint x="727.5" y="220" as="sourcePoint"/><mxPoint x="650" y="350" as="targetPoint"/></mxGeometry></mxCell><mxCell id="bWgCoBPQPXmN3WQ5duRe-26" value="send\receive&lt;br&gt;messages&lt;br&gt;to\from customers" style="edgeLabel;html=1;align=center;verticalAlign=middle;resizable=0;points=[];fontSize=11;fontFamily=PT Mono;fontColor=#707070;fontStyle=1" parent="bWgCoBPQPXmN3WQ5duRe-25" vertex="1" connectable="0"><mxGeometry x="-0.1713" y="2" relative="1" as="geometry"><mxPoint x="-12" y="-9" as="offset"/></mxGeometry></mxCell></root></mxGraphModel></diagram><diagram id="63VdUg3v3XQ5gEG0uyPo" name="CJM 4 Transactional Customer"><mxGraphModel dx="808" dy="538" grid="1" gridSize="10" guides="1" tooltips="1" connect="1" arrows="1" fold="1" page="1" pageScale="1" pageWidth="1654" pageHeight="1169" math="0" shadow="0"><root><mxCell id="-xe7j4Scvka6LWRaojzO-0"/><mxCell id="-xe7j4Scvka6LWRaojzO-1" parent="-xe7j4Scvka6LWRaojzO-0"/><mxCell id="-xe7j4Scvka6LWRaojzO-2" value="Farmacy Foods" style="swimlane;horizontal=0;fontFamily=PT Mono;fontSize=11;fontColor=#707070;startSize=23;" parent="-xe7j4Scvka6LWRaojzO-1" vertex="1"><mxGeometry x="20" y="280" width="1620" height="200" as="geometry"/></mxCell><mxCell id="-xe7j4Scvka6LWRaojzO-6" value="Receive Order" style="rounded=1;whiteSpace=wrap;html=1;fontFamily=PT Mono;fontSize=11;fontColor=#707070;" parent="-xe7j4Scvka6LWRaojzO-2" vertex="1"><mxGeometry x="26" y="70" width="120" height="60" as="geometry"/></mxCell><mxCell id="-xe7j4Scvka6LWRaojzO-29" value="Notify about Customer's engaging" style="whiteSpace=wrap;html=1;rounded=1;fontFamily=PT Mono;fontSize=11;fontColor=#707070;" parent="-xe7j4Scvka6LWRaojzO-2" vertex="1"><mxGeometry x="1460" y="40" width="120" height="60" as="geometry"/></mxCell><mxCell id="-xe7j4Scvka6LWRaojzO-8" value="Notify about Customer's order" style="rounded=1;whiteSpace=wrap;html=1;fontFamily=PT Mono;fontSize=11;fontColor=#707070;" parent="-xe7j4Scvka6LWRaojzO-2" vertex="1"><mxGeometry x="206" y="70" width="120" height="60" as="geometry"/></mxCell><mxCell id="-xe7j4Scvka6LWRaojzO-9" value="" style="edgeStyle=orthogonalEdgeStyle;rounded=0;orthogonalLoop=1;jettySize=auto;html=1;fontFamily=PT Mono;fontSize=11;fontColor=#707070;startArrow=none;startFill=0;endArrow=classic;endFill=1;verticalAlign=middle;" parent="-xe7j4Scvka6LWRaojzO-2" source="-xe7j4Scvka6LWRaojzO-6" target="-xe7j4Scvka6LWRaojzO-8" edge="1"><mxGeometry relative="1" as="geometry"/></mxCell><mxCell id="-xe7j4Scvka6LWRaojzO-3" value="Farmacy Family" style="swimlane;horizontal=0;fontFamily=PT Mono;fontSize=11;fontColor=#707070;" parent="-xe7j4Scvka6LWRaojzO-1" vertex="1"><mxGeometry x="20" y="480" width="1620" height="200" as="geometry"/></mxCell><mxCell id="-xe7j4Scvka6LWRaojzO-12" value="Check if Engaged Customer" style="rhombus;whiteSpace=wrap;html=1;rounded=1;fontFamily=PT Mono;fontSize=11;fontColor=#707070;" parent="-xe7j4Scvka6LWRaojzO-3" vertex="1"><mxGeometry x="376" y="30" width="100" height="110" as="geometry"/></mxCell><mxCell id="-xe7j4Scvka6LWRaojzO-15" value="Send&lt;br&gt;Confirmation&lt;br&gt;email" style="whiteSpace=wrap;html=1;rounded=1;fontFamily=PT Mono;fontSize=11;fontColor=#707070;" parent="-xe7j4Scvka6LWRaojzO-3" vertex="1"><mxGeometry x="36" y="55" width="120" height="60" as="geometry"/></mxCell><mxCell id="-xe7j4Scvka6LWRaojzO-26" value="Register as Engaged Customer" style="whiteSpace=wrap;html=1;rounded=1;fontFamily=PT Mono;fontSize=11;fontColor=#707070;" parent="-xe7j4Scvka6LWRaojzO-3" vertex="1"><mxGeometry x="955" y="55" width="120" height="60" as="geometry"/></mxCell><mxCell id="-xe7j4Scvka6LWRaojzO-32" value="" style="rounded=0;orthogonalLoop=1;jettySize=auto;html=1;fontFamily=PT Mono;fontSize=11;fontColor=#707070;startArrow=none;startFill=0;endArrow=classic;endFill=1;verticalAlign=middle;entryX=0;entryY=0.5;entryDx=0;entryDy=0;exitX=1;exitY=0.5;exitDx=0;exitDy=0;" parent="-xe7j4Scvka6LWRaojzO-3" source="-xe7j4Scvka6LWRaojzO-12" target="-xe7j4Scvka6LWRaojzO-35" edge="1"><mxGeometry relative="1" as="geometry"><mxPoint x="200" y="95" as="targetPoint"/></mxGeometry></mxCell><mxCell id="-xe7j4Scvka6LWRaojzO-33" value="Yes" style="edgeLabel;html=1;align=center;verticalAlign=middle;resizable=0;points=[];fontSize=11;fontFamily=PT Mono;fontColor=#707070;" parent="-xe7j4Scvka6LWRaojzO-32" vertex="1" connectable="0"><mxGeometry x="-0.55" y="1" relative="1" as="geometry"><mxPoint as="offset"/></mxGeometry></mxCell><mxCell id="-xe7j4Scvka6LWRaojzO-35" value="Send Engaging email" style="whiteSpace=wrap;html=1;rounded=1;fontFamily=PT Mono;fontSize=11;fontColor=#707070;" parent="-xe7j4Scvka6LWRaojzO-3" vertex="1"><mxGeometry x="546" y="55" width="120" height="60" as="geometry"/></mxCell><mxCell id="-xe7j4Scvka6LWRaojzO-40" style="edgeStyle=orthogonalEdgeStyle;rounded=0;orthogonalLoop=1;jettySize=auto;html=1;entryX=1;entryY=0.5;entryDx=0;entryDy=0;fontFamily=PT Mono;fontSize=11;fontColor=#707070;startArrow=none;startFill=0;endArrow=classic;endFill=1;verticalAlign=middle;" parent="-xe7j4Scvka6LWRaojzO-3" source="-xe7j4Scvka6LWRaojzO-39" target="-xe7j4Scvka6LWRaojzO-15" edge="1"><mxGeometry relative="1" as="geometry"/></mxCell><mxCell id="-xe7j4Scvka6LWRaojzO-41" style="edgeStyle=orthogonalEdgeStyle;rounded=0;orthogonalLoop=1;jettySize=auto;html=1;entryX=0;entryY=0.5;entryDx=0;entryDy=0;fontFamily=PT Mono;fontSize=11;fontColor=#707070;startArrow=none;startFill=0;endArrow=classic;endFill=1;verticalAlign=middle;" parent="-xe7j4Scvka6LWRaojzO-3" source="-xe7j4Scvka6LWRaojzO-39" target="-xe7j4Scvka6LWRaojzO-12" edge="1"><mxGeometry relative="1" as="geometry"/></mxCell><mxCell id="-xe7j4Scvka6LWRaojzO-39" value="" style="shape=sumEllipse;perimeter=ellipsePerimeter;whiteSpace=wrap;html=1;backgroundOutline=1;fontFamily=PT Mono;fontSize=11;fontColor=#707070;" parent="-xe7j4Scvka6LWRaojzO-3" vertex="1"><mxGeometry x="226" y="45" width="80" height="80" as="geometry"/></mxCell><mxCell id="iRI83zPjtPN8Ko4ZnSms-8" value="Request accept for using medical data" style="whiteSpace=wrap;html=1;rounded=1;fontFamily=PT Mono;fontSize=11;fontColor=#707070;" parent="-xe7j4Scvka6LWRaojzO-3" vertex="1"><mxGeometry x="1160" y="55" width="120" height="60" as="geometry"/></mxCell><mxCell id="iRI83zPjtPN8Ko4ZnSms-9" value="" style="edgeStyle=orthogonalEdgeStyle;rounded=0;orthogonalLoop=1;jettySize=auto;html=1;fontFamily=PT Mono;fontSize=11;fontColor=#707070;startArrow=none;startFill=0;endArrow=classic;endFill=1;verticalAlign=middle;" parent="-xe7j4Scvka6LWRaojzO-3" source="-xe7j4Scvka6LWRaojzO-26" target="iRI83zPjtPN8Ko4ZnSms-8" edge="1"><mxGeometry relative="1" as="geometry"/></mxCell><mxCell id="iRI83zPjtPN8Ko4ZnSms-15" style="edgeStyle=orthogonalEdgeStyle;rounded=0;orthogonalLoop=1;jettySize=auto;html=1;entryX=0;entryY=0.5;entryDx=0;entryDy=0;fontFamily=PT Mono;fontSize=11;fontColor=#707070;startArrow=none;startFill=0;endArrow=classic;endFill=1;verticalAlign=middle;" parent="-xe7j4Scvka6LWRaojzO-3" source="iRI83zPjtPN8Ko4ZnSms-12" target="iRI83zPjtPN8Ko4ZnSms-14" edge="1"><mxGeometry relative="1" as="geometry"/></mxCell><mxCell id="iRI83zPjtPN8Ko4ZnSms-12" value="Create record about engaged Customer" style="whiteSpace=wrap;html=1;rounded=1;fontFamily=PT Mono;fontSize=11;fontColor=#707070;" parent="-xe7j4Scvka6LWRaojzO-3" vertex="1"><mxGeometry x="1320" y="55" width="120" height="60" as="geometry"/></mxCell><mxCell id="iRI83zPjtPN8Ko4ZnSms-14" value="" style="shape=sumEllipse;perimeter=ellipsePerimeter;whiteSpace=wrap;html=1;backgroundOutline=1;fontFamily=PT Mono;fontSize=11;fontColor=#707070;" parent="-xe7j4Scvka6LWRaojzO-3" vertex="1"><mxGeometry x="1480" y="45" width="80" height="80" as="geometry"/></mxCell><mxCell id="-xe7j4Scvka6LWRaojzO-4" value="Transactional Customer" style="swimlane;horizontal=0;fontFamily=PT Mono;fontSize=11;fontColor=#707070;" parent="-xe7j4Scvka6LWRaojzO-1" vertex="1"><mxGeometry x="20" y="80" width="1620" height="200" as="geometry"/></mxCell><mxCell id="-xe7j4Scvka6LWRaojzO-5" value="Make an order" style="rounded=1;whiteSpace=wrap;html=1;fontFamily=PT Mono;fontSize=11;fontColor=#707070;" parent="-xe7j4Scvka6LWRaojzO-4" vertex="1"><mxGeometry x="26" y="70" width="120" height="60" as="geometry"/></mxCell><mxCell id="iRI83zPjtPN8Ko4ZnSms-19" style="edgeStyle=orthogonalEdgeStyle;rounded=0;orthogonalLoop=1;jettySize=auto;html=1;entryX=0;entryY=0.5;entryDx=0;entryDy=0;fontFamily=PT Mono;fontSize=11;fontColor=#707070;startArrow=none;startFill=0;endArrow=classic;endFill=1;verticalAlign=middle;" parent="-xe7j4Scvka6LWRaojzO-4" source="-xe7j4Scvka6LWRaojzO-17" target="iRI83zPjtPN8Ko4ZnSms-18" edge="1"><mxGeometry relative="1" as="geometry"/></mxCell><mxCell id="-xe7j4Scvka6LWRaojzO-17" value="Receive &amp;amp; Read Email" style="whiteSpace=wrap;html=1;rounded=1;fontFamily=PT Mono;fontSize=11;fontColor=#707070;" parent="-xe7j4Scvka6LWRaojzO-4" vertex="1"><mxGeometry x="760" y="60" width="120" height="60" as="geometry"/></mxCell><mxCell id="iRI83zPjtPN8Ko4ZnSms-10" value="Accept using medical data" style="whiteSpace=wrap;html=1;rounded=1;fontFamily=PT Mono;fontSize=11;fontColor=#707070;" parent="-xe7j4Scvka6LWRaojzO-4" vertex="1"><mxGeometry x="1160" y="60" width="120" height="60" as="geometry"/></mxCell><mxCell id="iRI83zPjtPN8Ko4ZnSms-18" value="register&lt;br&gt;if&lt;br&gt;engaging email" style="rhombus;whiteSpace=wrap;html=1;fontFamily=PT Mono;fontSize=11;fontColor=#707070;" parent="-xe7j4Scvka6LWRaojzO-4" vertex="1"><mxGeometry x="940" y="35" width="150" height="110" as="geometry"/></mxCell><mxCell id="-xe7j4Scvka6LWRaojzO-7" style="edgeStyle=orthogonalEdgeStyle;rounded=0;orthogonalLoop=1;jettySize=auto;html=1;fontFamily=PT Mono;fontSize=11;fontColor=#707070;startArrow=none;startFill=0;endArrow=classic;endFill=1;verticalAlign=middle;" parent="-xe7j4Scvka6LWRaojzO-1" source="-xe7j4Scvka6LWRaojzO-5" target="-xe7j4Scvka6LWRaojzO-6" edge="1"><mxGeometry relative="1" as="geometry"/></mxCell><mxCell id="-xe7j4Scvka6LWRaojzO-11" value="" style="edgeStyle=orthogonalEdgeStyle;rounded=0;orthogonalLoop=1;jettySize=auto;html=1;fontFamily=PT Mono;fontSize=11;fontColor=#707070;startArrow=none;startFill=0;endArrow=classic;endFill=1;verticalAlign=middle;entryX=0.5;entryY=0;entryDx=0;entryDy=0;" parent="-xe7j4Scvka6LWRaojzO-1" source="-xe7j4Scvka6LWRaojzO-8" target="-xe7j4Scvka6LWRaojzO-39" edge="1"><mxGeometry relative="1" as="geometry"><mxPoint x="400" y="560" as="targetPoint"/></mxGeometry></mxCell><mxCell id="-xe7j4Scvka6LWRaojzO-19" value="Omnichannel Platform" style="swimlane;horizontal=0;fontFamily=PT Mono;fontSize=11;fontColor=#707070;" parent="-xe7j4Scvka6LWRaojzO-1" vertex="1"><mxGeometry x="20" y="680" width="1620" height="200" as="geometry"/></mxCell><mxCell id="-xe7j4Scvka6LWRaojzO-22" value="" style="edgeStyle=orthogonalEdgeStyle;rounded=0;orthogonalLoop=1;jettySize=auto;html=1;fontFamily=PT Mono;fontSize=11;fontColor=#707070;startArrow=none;startFill=0;endArrow=classic;endFill=1;verticalAlign=middle;" parent="-xe7j4Scvka6LWRaojzO-19" edge="1"><mxGeometry relative="1" as="geometry"><mxPoint x="390" y="135" as="sourcePoint"/></mxGeometry></mxCell><mxCell id="-xe7j4Scvka6LWRaojzO-37" value="Send Email" style="whiteSpace=wrap;html=1;rounded=1;fontFamily=PT Mono;fontSize=11;fontColor=#707070;" parent="-xe7j4Scvka6LWRaojzO-19" vertex="1"><mxGeometry x="676" y="70" width="120" height="60" as="geometry"/></mxCell><mxCell id="-xe7j4Scvka6LWRaojzO-25" value="" style="edgeStyle=orthogonalEdgeStyle;rounded=0;orthogonalLoop=1;jettySize=auto;html=1;fontFamily=PT Mono;fontSize=11;fontColor=#707070;startArrow=none;startFill=0;endArrow=classic;endFill=1;verticalAlign=middle;entryX=0;entryY=0.5;entryDx=0;entryDy=0;exitX=0.5;exitY=1;exitDx=0;exitDy=0;" parent="-xe7j4Scvka6LWRaojzO-1" source="-xe7j4Scvka6LWRaojzO-15" target="-xe7j4Scvka6LWRaojzO-37" edge="1"><mxGeometry relative="1" as="geometry"><mxPoint x="380" y="780" as="targetPoint"/><Array as="points"><mxPoint x="116" y="780"/></Array></mxGeometry></mxCell><mxCell id="-xe7j4Scvka6LWRaojzO-27" value="" style="edgeStyle=orthogonalEdgeStyle;rounded=0;orthogonalLoop=1;jettySize=auto;html=1;fontFamily=PT Mono;fontSize=11;fontColor=#707070;startArrow=none;startFill=0;endArrow=classic;endFill=1;verticalAlign=middle;exitX=0.5;exitY=1;exitDx=0;exitDy=0;" parent="-xe7j4Scvka6LWRaojzO-1" source="iRI83zPjtPN8Ko4ZnSms-18" target="-xe7j4Scvka6LWRaojzO-26" edge="1"><mxGeometry relative="1" as="geometry"/></mxCell><mxCell id="iRI83zPjtPN8Ko4ZnSms-20" value="Yes" style="edgeLabel;html=1;align=center;verticalAlign=middle;resizable=0;points=[];fontSize=11;fontFamily=PT Mono;fontColor=#707070;" parent="-xe7j4Scvka6LWRaojzO-27" vertex="1" connectable="0"><mxGeometry x="-0.0654" y="1" relative="1" as="geometry"><mxPoint y="1" as="offset"/></mxGeometry></mxCell><mxCell id="-xe7j4Scvka6LWRaojzO-38" value="" style="edgeStyle=orthogonalEdgeStyle;rounded=0;orthogonalLoop=1;jettySize=auto;html=1;fontFamily=PT Mono;fontSize=11;fontColor=#707070;startArrow=none;startFill=0;endArrow=classic;endFill=1;verticalAlign=middle;" parent="-xe7j4Scvka6LWRaojzO-1" source="-xe7j4Scvka6LWRaojzO-35" target="-xe7j4Scvka6LWRaojzO-37" edge="1"><mxGeometry relative="1" as="geometry"/></mxCell><mxCell id="iRI83zPjtPN8Ko4ZnSms-0" value="Medical Data Platform" style="swimlane;horizontal=0;fontFamily=PT Mono;fontSize=11;fontColor=#707070;" parent="-xe7j4Scvka6LWRaojzO-1" vertex="1"><mxGeometry x="20" y="880" width="1620" height="200" as="geometry"/></mxCell><mxCell id="iRI83zPjtPN8Ko4ZnSms-1" value="" style="edgeStyle=orthogonalEdgeStyle;rounded=0;orthogonalLoop=1;jettySize=auto;html=1;fontFamily=PT Mono;fontSize=11;fontColor=#707070;startArrow=none;startFill=0;endArrow=classic;endFill=1;verticalAlign=middle;" parent="iRI83zPjtPN8Ko4ZnSms-0" edge="1"><mxGeometry relative="1" as="geometry"><mxPoint x="390" y="135" as="sourcePoint"/></mxGeometry></mxCell><mxCell id="iRI83zPjtPN8Ko4ZnSms-6" value="Register connection with Customer" style="whiteSpace=wrap;html=1;rounded=1;fontFamily=PT Mono;fontSize=11;fontColor=#707070;" parent="iRI83zPjtPN8Ko4ZnSms-0" vertex="1"><mxGeometry x="1460" y="70" width="120" height="60" as="geometry"/></mxCell><mxCell id="iRI83zPjtPN8Ko4ZnSms-5" style="edgeStyle=orthogonalEdgeStyle;rounded=0;orthogonalLoop=1;jettySize=auto;html=1;entryX=0.5;entryY=1;entryDx=0;entryDy=0;fontFamily=PT Mono;fontSize=11;fontColor=#707070;startArrow=none;startFill=0;endArrow=classic;endFill=1;verticalAlign=middle;exitX=1;exitY=0.5;exitDx=0;exitDy=0;" parent="-xe7j4Scvka6LWRaojzO-1" source="-xe7j4Scvka6LWRaojzO-37" target="-xe7j4Scvka6LWRaojzO-17" edge="1"><mxGeometry relative="1" as="geometry"/></mxCell><mxCell id="iRI83zPjtPN8Ko4ZnSms-11" value="" style="edgeStyle=orthogonalEdgeStyle;rounded=0;orthogonalLoop=1;jettySize=auto;html=1;fontFamily=PT Mono;fontSize=11;fontColor=#707070;startArrow=none;startFill=0;endArrow=classic;endFill=1;verticalAlign=middle;" parent="-xe7j4Scvka6LWRaojzO-1" source="iRI83zPjtPN8Ko4ZnSms-8" target="iRI83zPjtPN8Ko4ZnSms-10" edge="1"><mxGeometry relative="1" as="geometry"/></mxCell><mxCell id="iRI83zPjtPN8Ko4ZnSms-13" value="" style="edgeStyle=orthogonalEdgeStyle;rounded=0;orthogonalLoop=1;jettySize=auto;html=1;fontFamily=PT Mono;fontSize=11;fontColor=#707070;startArrow=none;startFill=0;endArrow=classic;endFill=1;verticalAlign=middle;" parent="-xe7j4Scvka6LWRaojzO-1" source="iRI83zPjtPN8Ko4ZnSms-10" target="iRI83zPjtPN8Ko4ZnSms-12" edge="1"><mxGeometry relative="1" as="geometry"/></mxCell><mxCell id="iRI83zPjtPN8Ko4ZnSms-16" style="edgeStyle=orthogonalEdgeStyle;rounded=0;orthogonalLoop=1;jettySize=auto;html=1;entryX=0.5;entryY=0;entryDx=0;entryDy=0;fontFamily=PT Mono;fontSize=11;fontColor=#707070;startArrow=none;startFill=0;endArrow=classic;endFill=1;verticalAlign=middle;" parent="-xe7j4Scvka6LWRaojzO-1" source="iRI83zPjtPN8Ko4ZnSms-14" target="iRI83zPjtPN8Ko4ZnSms-6" edge="1"><mxGeometry relative="1" as="geometry"/></mxCell><mxCell id="iRI83zPjtPN8Ko4ZnSms-17" style="edgeStyle=orthogonalEdgeStyle;rounded=0;orthogonalLoop=1;jettySize=auto;html=1;entryX=0.5;entryY=1;entryDx=0;entryDy=0;fontFamily=PT Mono;fontSize=11;fontColor=#707070;startArrow=none;startFill=0;endArrow=classic;endFill=1;verticalAlign=middle;" parent="-xe7j4Scvka6LWRaojzO-1" source="iRI83zPjtPN8Ko4ZnSms-14" target="-xe7j4Scvka6LWRaojzO-29" edge="1"><mxGeometry relative="1" as="geometry"/></mxCell></root></mxGraphModel></diagram><diagram name="CJM 4 Clinic" id="e0tnF2mRrYL5_SpOiaty"><mxGraphModel dx="808" dy="538" grid="1" gridSize="10" guides="1" tooltips="1" connect="1" arrows="1" fold="1" page="1" pageScale="1" pageWidth="1654" pageHeight="1169" math="0" shadow="0"><root><mxCell id="0UFXPIOvYFVvOnh-_KfE-0"/><mxCell id="0UFXPIOvYFVvOnh-_KfE-1" parent="0UFXPIOvYFVvOnh-_KfE-0"/><mxCell id="0UFXPIOvYFVvOnh-_KfE-2" value="Client" style="swimlane;horizontal=0;fontFamily=PT Mono;fontSize=11;fontColor=#707070;startSize=23;noLabel=0;" parent="0UFXPIOvYFVvOnh-_KfE-1" vertex="1"><mxGeometry x="20" y="280" width="1770" height="200" as="geometry"/></mxCell><mxCell id="PKmQ4xKR9OLJnaxEIG6X-0" value="Registers as Engaged Customer" style="whiteSpace=wrap;html=1;rounded=1;fontFamily=PT Mono;fontSize=11;fontColor=#707070;" parent="0UFXPIOvYFVvOnh-_KfE-2" vertex="1"><mxGeometry x="50" y="70" width="120" height="60" as="geometry"/></mxCell><mxCell id="PKmQ4xKR9OLJnaxEIG6X-24" style="edgeStyle=orthogonalEdgeStyle;rounded=0;orthogonalLoop=1;jettySize=auto;html=1;entryX=0;entryY=0.5;entryDx=0;entryDy=0;" parent="0UFXPIOvYFVvOnh-_KfE-2" source="PKmQ4xKR9OLJnaxEIG6X-16" target="PKmQ4xKR9OLJnaxEIG6X-23" edge="1"><mxGeometry relative="1" as="geometry"/></mxCell><mxCell id="PKmQ4xKR9OLJnaxEIG6X-16" value="Tests at home in the clinic" style="whiteSpace=wrap;html=1;rounded=1;fontFamily=PT Mono;fontSize=11;fontColor=#707070;" parent="0UFXPIOvYFVvOnh-_KfE-2" vertex="1"><mxGeometry x="440" y="50" width="150" height="70" as="geometry"/></mxCell><mxCell id="PKmQ4xKR9OLJnaxEIG6X-25" style="edgeStyle=orthogonalEdgeStyle;rounded=0;orthogonalLoop=1;jettySize=auto;html=1;exitX=1;exitY=0.5;exitDx=0;exitDy=0;entryX=0;entryY=0.5;entryDx=0;entryDy=0;" parent="0UFXPIOvYFVvOnh-_KfE-2" source="PKmQ4xKR9OLJnaxEIG6X-23" target="PKmQ4xKR9OLJnaxEIG6X-18" edge="1"><mxGeometry relative="1" as="geometry"/></mxCell><mxCell id="PKmQ4xKR9OLJnaxEIG6X-28" value="at home" style="edgeLabel;html=1;align=center;verticalAlign=middle;resizable=0;points=[];" parent="PKmQ4xKR9OLJnaxEIG6X-25" vertex="1" connectable="0"><mxGeometry x="-0.2" y="1" relative="1" as="geometry"><mxPoint as="offset"/></mxGeometry></mxCell><mxCell id="PKmQ4xKR9OLJnaxEIG6X-23" value="Tests at home?" style="rhombus;whiteSpace=wrap;html=1;rounded=1;fontFamily=PT Mono;fontSize=11;fontColor=#707070;" parent="0UFXPIOvYFVvOnh-_KfE-2" vertex="1"><mxGeometry x="670" y="20" width="230" height="130" as="geometry"/></mxCell><mxCell id="PKmQ4xKR9OLJnaxEIG6X-18" value="Sends test results" style="whiteSpace=wrap;html=1;rounded=1;fontFamily=PT Mono;fontSize=11;fontColor=#707070;" parent="0UFXPIOvYFVvOnh-_KfE-2" vertex="1"><mxGeometry x="970" y="50" width="150" height="70" as="geometry"/></mxCell><mxCell id="0UFXPIOvYFVvOnh-_KfE-7" value="Farmacy Family" style="swimlane;horizontal=0;fontFamily=PT Mono;fontSize=11;fontColor=#707070;" parent="0UFXPIOvYFVvOnh-_KfE-1" vertex="1"><mxGeometry x="20" y="680" width="1770" height="200" as="geometry"/></mxCell><mxCell id="0UFXPIOvYFVvOnh-_KfE-9" value="Customer's profile updates" style="whiteSpace=wrap;html=1;rounded=1;fontFamily=PT Mono;fontSize=11;fontColor=#707070;" parent="0UFXPIOvYFVvOnh-_KfE-7" vertex="1"><mxGeometry x="50" y="55" width="120" height="60" as="geometry"/></mxCell><mxCell id="0UFXPIOvYFVvOnh-_KfE-17" value="Obtains metadata,&amp;nbsp;&lt;br&gt;passes results to the platfoorm" style="whiteSpace=wrap;html=1;rounded=1;fontFamily=PT Mono;fontSize=11;fontColor=#707070;" parent="0UFXPIOvYFVvOnh-_KfE-7" vertex="1"><mxGeometry x="985" y="70" width="120" height="60" as="geometry"/></mxCell><mxCell id="PKmQ4xKR9OLJnaxEIG6X-12" value="Regular test reminder" style="rounded=1;whiteSpace=wrap;html=1;fontFamily=PT Mono;fontSize=11;fontColor=#707070;" parent="0UFXPIOvYFVvOnh-_KfE-7" vertex="1"><mxGeometry x="470" y="65" width="120" height="60" as="geometry"/></mxCell><mxCell id="PKmQ4xKR9OLJnaxEIG6X-60" style="edgeStyle=orthogonalEdgeStyle;rounded=0;orthogonalLoop=1;jettySize=auto;html=1;entryX=0;entryY=0.5;entryDx=0;entryDy=0;" parent="0UFXPIOvYFVvOnh-_KfE-7" source="PKmQ4xKR9OLJnaxEIG6X-52" target="PKmQ4xKR9OLJnaxEIG6X-57" edge="1"><mxGeometry relative="1" as="geometry"/></mxCell><mxCell id="PKmQ4xKR9OLJnaxEIG6X-52" value="Generates reports from aggregatted data" style="whiteSpace=wrap;html=1;rounded=1;fontFamily=PT Mono;fontSize=11;fontColor=#707070;" parent="0UFXPIOvYFVvOnh-_KfE-7" vertex="1"><mxGeometry x="1460" y="65" width="120" height="60" as="geometry"/></mxCell><mxCell id="PKmQ4xKR9OLJnaxEIG6X-57" value="Shares statistics &amp;amp; reports" style="whiteSpace=wrap;html=1;rounded=1;fontFamily=PT Mono;fontSize=11;fontColor=#707070;" parent="0UFXPIOvYFVvOnh-_KfE-7" vertex="1"><mxGeometry x="1634" y="65" width="120" height="60" as="geometry"/></mxCell><mxCell id="0UFXPIOvYFVvOnh-_KfE-30" value="Omnichannel Platform" style="swimlane;horizontal=0;fontFamily=PT Mono;fontSize=11;fontColor=#707070;" parent="0UFXPIOvYFVvOnh-_KfE-1" vertex="1"><mxGeometry x="20" y="480" width="1770" height="200" as="geometry"/></mxCell><mxCell id="0UFXPIOvYFVvOnh-_KfE-31" value="" style="edgeStyle=orthogonalEdgeStyle;rounded=0;orthogonalLoop=1;jettySize=auto;html=1;fontFamily=PT Mono;fontSize=11;fontColor=#707070;startArrow=none;startFill=0;endArrow=classic;endFill=1;verticalAlign=middle;" parent="0UFXPIOvYFVvOnh-_KfE-30" edge="1"><mxGeometry relative="1" as="geometry"><mxPoint x="390" y="135" as="sourcePoint"/></mxGeometry></mxCell><mxCell id="PKmQ4xKR9OLJnaxEIG6X-5" value="Communication about partner clinics &amp;amp; how to join them or add own one" style="whiteSpace=wrap;html=1;rounded=1;fontFamily=PT Mono;fontSize=11;fontColor=#707070;" parent="0UFXPIOvYFVvOnh-_KfE-30" vertex="1"><mxGeometry x="250" y="60" width="150" height="70" as="geometry"/></mxCell><mxCell id="PKmQ4xKR9OLJnaxEIG6X-14" value="Communication about regular test reminder" style="whiteSpace=wrap;html=1;rounded=1;fontFamily=PT Mono;fontSize=11;fontColor=#707070;" parent="0UFXPIOvYFVvOnh-_KfE-30" vertex="1"><mxGeometry x="440" y="60" width="150" height="70" as="geometry"/></mxCell><mxCell id="PKmQ4xKR9OLJnaxEIG6X-37" value="Communication about changes in health or problems with the test results" style="whiteSpace=wrap;html=1;rounded=1;fontFamily=PT Mono;fontSize=11;fontColor=#707070;" parent="0UFXPIOvYFVvOnh-_KfE-30" vertex="1"><mxGeometry x="1200" y="50" width="150" height="70" as="geometry"/></mxCell><mxCell id="PKmQ4xKR9OLJnaxEIG6X-54" value="Advices, repoorts, etc.&amp;nbsp;" style="whiteSpace=wrap;html=1;rounded=1;fontFamily=PT Mono;fontSize=11;fontColor=#707070;" parent="0UFXPIOvYFVvOnh-_KfE-30" vertex="1"><mxGeometry x="1460" y="45" width="120" height="60" as="geometry"/></mxCell><mxCell id="0UFXPIOvYFVvOnh-_KfE-37" value="Medical Data Platform" style="swimlane;horizontal=0;fontFamily=PT Mono;fontSize=11;fontColor=#707070;" parent="0UFXPIOvYFVvOnh-_KfE-1" vertex="1"><mxGeometry x="20" y="880" width="1770" height="210" as="geometry"/></mxCell><mxCell id="0UFXPIOvYFVvOnh-_KfE-38" value="" style="edgeStyle=orthogonalEdgeStyle;rounded=0;orthogonalLoop=1;jettySize=auto;html=1;fontFamily=PT Mono;fontSize=11;fontColor=#707070;startArrow=none;startFill=0;endArrow=classic;endFill=1;verticalAlign=middle;" parent="0UFXPIOvYFVvOnh-_KfE-37" edge="1"><mxGeometry relative="1" as="geometry"><mxPoint x="390" y="135" as="sourcePoint"/></mxGeometry></mxCell><mxCell id="0UFXPIOvYFVvOnh-_KfE-8" value="Check if Customer is client of partner clinics" style="rhombus;whiteSpace=wrap;html=1;rounded=1;fontFamily=PT Mono;fontSize=11;fontColor=#707070;" parent="0UFXPIOvYFVvOnh-_KfE-37" vertex="1"><mxGeometry x="40" y="60" width="230" height="130" as="geometry"/></mxCell><mxCell id="PKmQ4xKR9OLJnaxEIG6X-31" value="Obtain the test results, pass to the cliniic" style="whiteSpace=wrap;html=1;rounded=1;fontFamily=PT Mono;fontSize=11;fontColor=#707070;" parent="0UFXPIOvYFVvOnh-_KfE-37" vertex="1"><mxGeometry x="985" y="75" width="120" height="60" as="geometry"/></mxCell><mxCell id="PKmQ4xKR9OLJnaxEIG6X-43" value="Provides historical data" style="whiteSpace=wrap;html=1;rounded=1;fontFamily=PT Mono;fontSize=11;fontColor=#707070;" parent="0UFXPIOvYFVvOnh-_KfE-37" vertex="1"><mxGeometry x="1460" y="75" width="120" height="60" as="geometry"/></mxCell><mxCell id="0UFXPIOvYFVvOnh-_KfE-45" value="Partner Clinic" style="swimlane;horizontal=0;fontFamily=PT Mono;fontSize=11;fontColor=#707070;" parent="0UFXPIOvYFVvOnh-_KfE-1" vertex="1"><mxGeometry x="13" y="1090" width="1777" height="180" as="geometry"/></mxCell><mxCell id="0UFXPIOvYFVvOnh-_KfE-46" value="Regular test reminder" style="rounded=1;whiteSpace=wrap;html=1;fontFamily=PT Mono;fontSize=11;fontColor=#707070;" parent="0UFXPIOvYFVvOnh-_KfE-45" vertex="1"><mxGeometry x="313" y="60" width="120" height="60" as="geometry"/></mxCell><mxCell id="0UFXPIOvYFVvOnh-_KfE-47" style="edgeStyle=orthogonalEdgeStyle;rounded=0;orthogonalLoop=1;jettySize=auto;html=1;entryX=0;entryY=0.5;entryDx=0;entryDy=0;fontFamily=PT Mono;fontSize=11;fontColor=#707070;startArrow=none;startFill=0;endArrow=classic;endFill=1;verticalAlign=middle;" parent="0UFXPIOvYFVvOnh-_KfE-45" source="0UFXPIOvYFVvOnh-_KfE-48" target="0UFXPIOvYFVvOnh-_KfE-49" edge="1"><mxGeometry relative="1" as="geometry"><mxPoint x="940" y="90" as="targetPoint"/></mxGeometry></mxCell><mxCell id="0UFXPIOvYFVvOnh-_KfE-48" value="Obtain the test results" style="whiteSpace=wrap;html=1;rounded=1;fontFamily=PT Mono;fontSize=11;fontColor=#707070;" parent="0UFXPIOvYFVvOnh-_KfE-45" vertex="1"><mxGeometry x="728" y="60" width="120" height="60" as="geometry"/></mxCell><mxCell id="PKmQ4xKR9OLJnaxEIG6X-38" style="edgeStyle=orthogonalEdgeStyle;rounded=0;orthogonalLoop=1;jettySize=auto;html=1;entryX=0;entryY=0.5;entryDx=0;entryDy=0;" parent="0UFXPIOvYFVvOnh-_KfE-45" source="0UFXPIOvYFVvOnh-_KfE-49" target="PKmQ4xKR9OLJnaxEIG6X-35" edge="1"><mxGeometry relative="1" as="geometry"/></mxCell><mxCell id="0UFXPIOvYFVvOnh-_KfE-49" value="Gather results to client's EHR" style="whiteSpace=wrap;html=1;rounded=1;fontFamily=PT Mono;fontSize=11;fontColor=#707070;" parent="0UFXPIOvYFVvOnh-_KfE-45" vertex="1"><mxGeometry x="988" y="60" width="120" height="60" as="geometry"/></mxCell><mxCell id="PKmQ4xKR9OLJnaxEIG6X-45" value="yes" style="edgeStyle=orthogonalEdgeStyle;rounded=0;orthogonalLoop=1;jettySize=auto;html=1;entryX=0;entryY=0.5;entryDx=0;entryDy=0;" parent="0UFXPIOvYFVvOnh-_KfE-45" source="PKmQ4xKR9OLJnaxEIG6X-35" target="PKmQ4xKR9OLJnaxEIG6X-44" edge="1"><mxGeometry relative="1" as="geometry"/></mxCell><mxCell id="PKmQ4xKR9OLJnaxEIG6X-35" value="Results are ok?" style="rhombus;whiteSpace=wrap;html=1;rounded=1;fontFamily=PT Mono;fontSize=11;fontColor=#707070;" parent="0UFXPIOvYFVvOnh-_KfE-45" vertex="1"><mxGeometry x="1167" y="25" width="230" height="130" as="geometry"/></mxCell><mxCell id="PKmQ4xKR9OLJnaxEIG6X-44" value="Saves new EHRs" style="whiteSpace=wrap;html=1;rounded=1;fontFamily=PT Mono;fontSize=11;fontColor=#707070;" parent="0UFXPIOvYFVvOnh-_KfE-45" vertex="1"><mxGeometry x="1467" y="60" width="120" height="60" as="geometry"/></mxCell><mxCell id="PKmQ4xKR9OLJnaxEIG6X-62" value="Uses them to gain investors and additional support and help" style="whiteSpace=wrap;html=1;rounded=1;fontFamily=PT Mono;fontSize=11;fontColor=#707070;" parent="0UFXPIOvYFVvOnh-_KfE-45" vertex="1"><mxGeometry x="1627" y="60" width="120" height="60" as="geometry"/></mxCell><mxCell id="PKmQ4xKR9OLJnaxEIG6X-1" style="edgeStyle=orthogonalEdgeStyle;rounded=0;orthogonalLoop=1;jettySize=auto;html=1;entryX=0.5;entryY=0;entryDx=0;entryDy=0;" parent="0UFXPIOvYFVvOnh-_KfE-1" source="PKmQ4xKR9OLJnaxEIG6X-0" target="0UFXPIOvYFVvOnh-_KfE-9" edge="1"><mxGeometry relative="1" as="geometry"/></mxCell><mxCell id="PKmQ4xKR9OLJnaxEIG6X-4" style="edgeStyle=orthogonalEdgeStyle;rounded=0;orthogonalLoop=1;jettySize=auto;html=1;entryX=0.5;entryY=0;entryDx=0;entryDy=0;" parent="0UFXPIOvYFVvOnh-_KfE-1" source="0UFXPIOvYFVvOnh-_KfE-9" target="0UFXPIOvYFVvOnh-_KfE-8" edge="1"><mxGeometry relative="1" as="geometry"/></mxCell><mxCell id="PKmQ4xKR9OLJnaxEIG6X-8" style="edgeStyle=orthogonalEdgeStyle;rounded=0;orthogonalLoop=1;jettySize=auto;html=1;exitX=1;exitY=0.5;exitDx=0;exitDy=0;entryX=0.5;entryY=1;entryDx=0;entryDy=0;" parent="0UFXPIOvYFVvOnh-_KfE-1" source="0UFXPIOvYFVvOnh-_KfE-8" target="PKmQ4xKR9OLJnaxEIG6X-5" edge="1"><mxGeometry relative="1" as="geometry"/></mxCell><mxCell id="PKmQ4xKR9OLJnaxEIG6X-10" value="no" style="edgeLabel;html=1;align=center;verticalAlign=middle;resizable=0;points=[];" parent="PKmQ4xKR9OLJnaxEIG6X-8" vertex="1" connectable="0"><mxGeometry x="0.3319" y="-5" relative="1" as="geometry"><mxPoint as="offset"/></mxGeometry></mxCell><mxCell id="PKmQ4xKR9OLJnaxEIG6X-9" style="edgeStyle=orthogonalEdgeStyle;rounded=0;orthogonalLoop=1;jettySize=auto;html=1;entryX=0;entryY=0.5;entryDx=0;entryDy=0;" parent="0UFXPIOvYFVvOnh-_KfE-1" source="0UFXPIOvYFVvOnh-_KfE-8" target="0UFXPIOvYFVvOnh-_KfE-46" edge="1"><mxGeometry relative="1" as="geometry"><Array as="points"><mxPoint x="170" y="1180"/></Array></mxGeometry></mxCell><mxCell id="PKmQ4xKR9OLJnaxEIG6X-11" value="yes" style="edgeLabel;html=1;align=center;verticalAlign=middle;resizable=0;points=[];" parent="PKmQ4xKR9OLJnaxEIG6X-9" vertex="1" connectable="0"><mxGeometry x="-0.5248" y="1" relative="1" as="geometry"><mxPoint as="offset"/></mxGeometry></mxCell><mxCell id="PKmQ4xKR9OLJnaxEIG6X-13" style="edgeStyle=orthogonalEdgeStyle;rounded=0;orthogonalLoop=1;jettySize=auto;html=1;" parent="0UFXPIOvYFVvOnh-_KfE-1" source="0UFXPIOvYFVvOnh-_KfE-46" edge="1"><mxGeometry relative="1" as="geometry"><mxPoint x="550" y="810" as="targetPoint"/></mxGeometry></mxCell><mxCell id="PKmQ4xKR9OLJnaxEIG6X-15" style="edgeStyle=orthogonalEdgeStyle;rounded=0;orthogonalLoop=1;jettySize=auto;html=1;entryX=0.5;entryY=1;entryDx=0;entryDy=0;" parent="0UFXPIOvYFVvOnh-_KfE-1" source="PKmQ4xKR9OLJnaxEIG6X-12" target="PKmQ4xKR9OLJnaxEIG6X-14" edge="1"><mxGeometry relative="1" as="geometry"/></mxCell><mxCell id="PKmQ4xKR9OLJnaxEIG6X-17" style="edgeStyle=orthogonalEdgeStyle;rounded=0;orthogonalLoop=1;jettySize=auto;html=1;" parent="0UFXPIOvYFVvOnh-_KfE-1" source="PKmQ4xKR9OLJnaxEIG6X-14" target="PKmQ4xKR9OLJnaxEIG6X-16" edge="1"><mxGeometry relative="1" as="geometry"/></mxCell><mxCell id="PKmQ4xKR9OLJnaxEIG6X-26" style="edgeStyle=orthogonalEdgeStyle;rounded=0;orthogonalLoop=1;jettySize=auto;html=1;entryX=0.5;entryY=0;entryDx=0;entryDy=0;" parent="0UFXPIOvYFVvOnh-_KfE-1" source="PKmQ4xKR9OLJnaxEIG6X-23" target="0UFXPIOvYFVvOnh-_KfE-48" edge="1"><mxGeometry relative="1" as="geometry"/></mxCell><mxCell id="PKmQ4xKR9OLJnaxEIG6X-27" value="at the clinic" style="edgeLabel;html=1;align=center;verticalAlign=middle;resizable=0;points=[];" parent="PKmQ4xKR9OLJnaxEIG6X-26" vertex="1" connectable="0"><mxGeometry x="-0.1194" y="1" relative="1" as="geometry"><mxPoint as="offset"/></mxGeometry></mxCell><mxCell id="PKmQ4xKR9OLJnaxEIG6X-29" style="edgeStyle=orthogonalEdgeStyle;rounded=0;orthogonalLoop=1;jettySize=auto;html=1;entryX=0.5;entryY=0;entryDx=0;entryDy=0;" parent="0UFXPIOvYFVvOnh-_KfE-1" source="PKmQ4xKR9OLJnaxEIG6X-18" target="0UFXPIOvYFVvOnh-_KfE-17" edge="1"><mxGeometry relative="1" as="geometry"/></mxCell><mxCell id="PKmQ4xKR9OLJnaxEIG6X-32" style="edgeStyle=orthogonalEdgeStyle;rounded=0;orthogonalLoop=1;jettySize=auto;html=1;entryX=0.5;entryY=0;entryDx=0;entryDy=0;" parent="0UFXPIOvYFVvOnh-_KfE-1" source="0UFXPIOvYFVvOnh-_KfE-17" target="PKmQ4xKR9OLJnaxEIG6X-31" edge="1"><mxGeometry relative="1" as="geometry"/></mxCell><mxCell id="PKmQ4xKR9OLJnaxEIG6X-34" style="edgeStyle=orthogonalEdgeStyle;rounded=0;orthogonalLoop=1;jettySize=auto;html=1;entryX=0.5;entryY=0;entryDx=0;entryDy=0;" parent="0UFXPIOvYFVvOnh-_KfE-1" source="PKmQ4xKR9OLJnaxEIG6X-31" target="0UFXPIOvYFVvOnh-_KfE-49" edge="1"><mxGeometry relative="1" as="geometry"/></mxCell><mxCell id="PKmQ4xKR9OLJnaxEIG6X-41" style="edgeStyle=orthogonalEdgeStyle;rounded=0;orthogonalLoop=1;jettySize=auto;html=1;entryX=0.5;entryY=1;entryDx=0;entryDy=0;" parent="0UFXPIOvYFVvOnh-_KfE-1" source="PKmQ4xKR9OLJnaxEIG6X-35" target="PKmQ4xKR9OLJnaxEIG6X-37" edge="1"><mxGeometry relative="1" as="geometry"/></mxCell><mxCell id="PKmQ4xKR9OLJnaxEIG6X-42" value="no" style="edgeLabel;html=1;align=center;verticalAlign=middle;resizable=0;points=[];" parent="PKmQ4xKR9OLJnaxEIG6X-41" vertex="1" connectable="0"><mxGeometry x="-0.3595" y="-3" relative="1" as="geometry"><mxPoint as="offset"/></mxGeometry></mxCell><mxCell id="PKmQ4xKR9OLJnaxEIG6X-46" style="edgeStyle=orthogonalEdgeStyle;rounded=0;orthogonalLoop=1;jettySize=auto;html=1;entryX=0.5;entryY=1;entryDx=0;entryDy=0;" parent="0UFXPIOvYFVvOnh-_KfE-1" source="PKmQ4xKR9OLJnaxEIG6X-44" target="PKmQ4xKR9OLJnaxEIG6X-43" edge="1"><mxGeometry relative="1" as="geometry"/></mxCell><mxCell id="PKmQ4xKR9OLJnaxEIG6X-53" style="edgeStyle=orthogonalEdgeStyle;rounded=0;orthogonalLoop=1;jettySize=auto;html=1;" parent="0UFXPIOvYFVvOnh-_KfE-1" source="PKmQ4xKR9OLJnaxEIG6X-43" target="PKmQ4xKR9OLJnaxEIG6X-52" edge="1"><mxGeometry relative="1" as="geometry"/></mxCell><mxCell id="PKmQ4xKR9OLJnaxEIG6X-55" style="edgeStyle=orthogonalEdgeStyle;rounded=0;orthogonalLoop=1;jettySize=auto;html=1;entryX=0.5;entryY=1;entryDx=0;entryDy=0;" parent="0UFXPIOvYFVvOnh-_KfE-1" source="PKmQ4xKR9OLJnaxEIG6X-52" target="PKmQ4xKR9OLJnaxEIG6X-54" edge="1"><mxGeometry relative="1" as="geometry"/></mxCell><mxCell id="PKmQ4xKR9OLJnaxEIG6X-63" style="edgeStyle=orthogonalEdgeStyle;rounded=0;orthogonalLoop=1;jettySize=auto;html=1;entryX=0.75;entryY=0;entryDx=0;entryDy=0;" parent="0UFXPIOvYFVvOnh-_KfE-1" source="PKmQ4xKR9OLJnaxEIG6X-57" target="PKmQ4xKR9OLJnaxEIG6X-62" edge="1"><mxGeometry relative="1" as="geometry"/></mxCell></root></mxGraphModel></diagram></mxfile>